<svg xmlns="http://www.w3.org/2000/svg" viewBox="0 0 240 240" width="240" height="240" role="img" aria-label="Doctor aesthetic female (ilustracion)">
  <defs>
    <clipPath id="c"><circle cx="120" cy="120" r="120"/></clipPath>
  </defs>
  <g clip-path="url(#c)">
    <rect width="240" height="240" fill="#fce7f3"/>
    <circle cx="120" cy="120" r="114" fill="#ffffff" opacity="0.55"/>
    <!-- torso / bata -->
    <path d="M 42 240 L 42 196 C 42 156, 86 138, 120 138 C 154 138, 198 156, 198 196 L 198 240 Z" fill="#fdf2f8" stroke="#be185d" stroke-width="2"/>
    <!-- solapa -->
    <path d="M 120 140 L 100 176 L 112 190 Z" fill="#fce7f3"/>
    <path d="M 120 140 L 140 176 L 128 190 Z" fill="#fce7f3"/>
    <!-- cuello -->
    <rect x="108" y="120" width="24" height="26" rx="10" fill="#e7c6a5"/>
    <!-- estetoscopio -->
    <path d="M 104 148 C 90 176, 112 206, 124 190" fill="none" stroke="#be185d" stroke-width="4" stroke-linecap="round"/>
    <circle cx="126" cy="192" r="7" fill="#be185d"/>
    <!-- cabeza (sin rostro) -->
    <circle cx="120" cy="96" r="34" fill="#e7c6a5"/>
    <path d="M 82 138 C 78 62, 88 54, 120 56 C 152 54, 162 62, 158 138 L 152 138 C 156 96, 152 64, 120 63 C 88 64, 84 96, 88 138 Z" fill="#3f3a36"/>
    <!-- insignia de especialidad -->
    <circle cx="172" cy="184" r="18" fill="#ffffff" stroke="#be185d" stroke-width="1.5"/><g fill="#be185d"><circle cx="177" cy="184" r="2.4"/><circle cx="174.5" cy="188.3" r="2.4"/><circle cx="169.5" cy="188.3" r="2.4"/><circle cx="167" cy="184" r="2.4"/><circle cx="169.5" cy="179.7" r="2.4"/><circle cx="174.5" cy="179.7" r="2.4"/><circle cx="172" cy="184" r="2.6" fill="#ffffff"/></g>
  </g>
  <circle cx="120" cy="120" r="119" fill="none" stroke="#be185d" stroke-width="2"/>
</svg>
