<svg xmlns="http://www.w3.org/2000/svg" viewBox="0 0 240 240" width="240" height="240" role="img" aria-label="Doctor general male (ilustracion)">
  <defs>
    <clipPath id="c"><circle cx="120" cy="120" r="120"/></clipPath>
  </defs>
  <g clip-path="url(#c)">
    <rect width="240" height="240" fill="#e0f2fe"/>
    <circle cx="120" cy="120" r="114" fill="#ffffff" opacity="0.55"/>
    <!-- torso / bata -->
    <path d="M 42 240 L 42 196 C 42 156, 86 138, 120 138 C 154 138, 198 156, 198 196 L 198 240 Z" fill="#ffffff" stroke="#0e7490" stroke-width="2"/>
    <!-- solapa -->
    <path d="M 120 140 L 100 176 L 112 190 Z" fill="#e0f2fe"/>
    <path d="M 120 140 L 140 176 L 128 190 Z" fill="#e0f2fe"/>
    <!-- cuello -->
    <rect x="108" y="120" width="24" height="26" rx="10" fill="#e7c6a5"/>
    <!-- estetoscopio -->
    <path d="M 104 148 C 90 176, 112 206, 124 190" fill="none" stroke="#0e7490" stroke-width="4" stroke-linecap="round"/>
    <circle cx="126" cy="192" r="7" fill="#0e7490"/>
    <!-- cabeza (sin rostro) -->
    <circle cx="120" cy="96" r="34" fill="#e7c6a5"/>
    <path d="M 85 97 C 85 53.5, 155 53.5, 155 97 C 144.48 77.3, 95.52 77.3, 85 97 Z" fill="#3f3a36"/>
    <!-- insignia de especialidad -->
    <circle cx="172" cy="184" r="18" fill="#ffffff" stroke="#0e7490" stroke-width="1.5"/><path d="M 170 178 h4 v4 h4 v4 h-4 v4 h-4 v-4 h-4 v-4 h4 Z" fill="#0e7490"/>
  </g>
  <circle cx="120" cy="120" r="119" fill="none" stroke="#0e7490" stroke-width="2"/>
</svg>
