<svg xmlns="http://www.w3.org/2000/svg" viewBox="0 0 240 240" width="240" height="240" role="img" aria-label="Doctor dental neutral (ilustracion)">
  <defs>
    <clipPath id="c"><circle cx="120" cy="120" r="120"/></clipPath>
  </defs>
  <g clip-path="url(#c)">
    <rect width="240" height="240" fill="#cffafe"/>
    <circle cx="120" cy="120" r="114" fill="#ffffff" opacity="0.55"/>
    <!-- torso / bata -->
    <path d="M 42 240 L 42 196 C 42 156, 86 138, 120 138 C 154 138, 198 156, 198 196 L 198 240 Z" fill="#ffffff" stroke="#0891b2" stroke-width="2"/>
    <!-- solapa -->
    <path d="M 120 140 L 100 176 L 112 190 Z" fill="#cffafe"/>
    <path d="M 120 140 L 140 176 L 128 190 Z" fill="#cffafe"/>
    <!-- cuello -->
    <rect x="108" y="120" width="24" height="26" rx="10" fill="#e7c6a5"/>
    <!-- estetoscopio -->
    <path d="M 104 148 C 90 176, 112 206, 124 190" fill="none" stroke="#0891b2" stroke-width="4" stroke-linecap="round"/>
    <circle cx="126" cy="192" r="7" fill="#0891b2"/>
    <!-- cabeza (sin rostro) -->
    <circle cx="120" cy="96" r="34" fill="#e7c6a5"/>
    <path d="M 84 96 C 83 55, 157 55, 156 96 C 154 93, 86 93, 84 96 Z" fill="#7dd3fc"/>
    <!-- insignia de especialidad -->
    <circle cx="172" cy="184" r="18" fill="#ffffff" stroke="#0891b2" stroke-width="1.5"/><path d="M 166 179 C 165 175, 171 175, 172 178 C 173 175, 179 175, 178 179 C 179 187, 176 192, 175 187 C 174 183, 170 183, 169 187 C 168 192, 165 187, 166 179 Z" fill="#0891b2"/>
  </g>
  <circle cx="120" cy="120" r="119" fill="none" stroke="#0891b2" stroke-width="2"/>
</svg>
