<svg xmlns="http://www.w3.org/2000/svg" viewBox="0 0 480 300" width="480" height="300" role="img" aria-label="Consultorio aesthetic (ilustracion)">
  <rect width="480" height="300" fill="#fce7f3"/>
    <rect y="214" width="480" height="86" fill="#eef2f5"/>
    <line x1="0" y1="214" x2="480" y2="214" stroke="#be185d" stroke-width="2" opacity="0.4"/>
    <!-- ventana -->
    <rect x="40" y="46" width="120" height="86" rx="6" fill="#ffffff" stroke="#be185d" stroke-width="3"/>
    <line x1="100" y1="46" x2="100" y2="132" stroke="#be185d" stroke-width="2" opacity="0.5"/>
    <line x1="40" y1="89" x2="160" y2="89" stroke="#be185d" stroke-width="2" opacity="0.5"/>
    <!-- cruz de rotulo -->
    <g transform="translate(410,60)"><rect x="-16" y="-6" width="32" height="12" rx="3" fill="#be185d"/><rect x="-6" y="-16" width="12" height="32" rx="3" fill="#be185d"/></g>
  <rect x="250" y="168" width="190" height="18" rx="9" fill="#be185d"/>
      <rect x="250" y="150" width="60" height="20" rx="10" fill="#ffffff" stroke="#be185d" stroke-width="3"/>
      <rect x="262" y="186" width="8" height="28" fill="#831843"/><rect x="420" y="186" width="8" height="28" fill="#831843"/>
      <rect x="196" y="150" width="30" height="64" rx="4" fill="#ffffff" stroke="#be185d" stroke-width="3"/>
      <g transform="translate(150,214)"><rect x="-10" y="-30" width="20" height="30" rx="4" fill="#be185d"/><path d="M 0 -30 C -22 -46, -22 -76, 0 -70 C 22 -76, 22 -46, 0 -30 Z" fill="#34d399"/></g>
</svg>
