<svg xmlns="http://www.w3.org/2000/svg" viewBox="0 0 480 300" width="480" height="300" role="img" aria-label="Consultorio general (ilustracion)">
  <rect width="480" height="300" fill="#e0f2fe"/>
    <rect y="214" width="480" height="86" fill="#eef2f5"/>
    <line x1="0" y1="214" x2="480" y2="214" stroke="#0e7490" stroke-width="2" opacity="0.4"/>
    <!-- ventana -->
    <rect x="40" y="46" width="120" height="86" rx="6" fill="#ffffff" stroke="#0e7490" stroke-width="3"/>
    <line x1="100" y1="46" x2="100" y2="132" stroke="#0e7490" stroke-width="2" opacity="0.5"/>
    <line x1="40" y1="89" x2="160" y2="89" stroke="#0e7490" stroke-width="2" opacity="0.5"/>
    <!-- cruz de rotulo -->
    <g transform="translate(410,60)"><rect x="-16" y="-6" width="32" height="12" rx="3" fill="#0e7490"/><rect x="-6" y="-16" width="12" height="32" rx="3" fill="#0e7490"/></g>
  <rect x="250" y="150" width="180" height="20" rx="6" fill="#0e7490"/>
      <rect x="250" y="120" width="70" height="34" rx="8" fill="#ffffff" stroke="#0e7490" stroke-width="3"/>
      <rect x="262" y="170" width="8" height="44" fill="#0b4a5c"/><rect x="410" y="170" width="8" height="44" fill="#0b4a5c"/>
      <circle cx="150" cy="180" r="8" fill="#0e7490"/><rect x="120" y="188" width="60" height="26" rx="6" fill="#ffffff" stroke="#0e7490" stroke-width="3"/>
</svg>
