<svg xmlns="http://www.w3.org/2000/svg" viewBox="0 0 480 300" width="480" height="300" role="img" aria-label="Consultorio surgeon (ilustracion)">
  <rect width="480" height="300" fill="#d1fae5"/>
    <rect y="214" width="480" height="86" fill="#eef2f5"/>
    <line x1="0" y1="214" x2="480" y2="214" stroke="#047857" stroke-width="2" opacity="0.4"/>
    <!-- ventana -->
    <rect x="40" y="46" width="120" height="86" rx="6" fill="#ffffff" stroke="#047857" stroke-width="3"/>
    <line x1="100" y1="46" x2="100" y2="132" stroke="#047857" stroke-width="2" opacity="0.5"/>
    <line x1="40" y1="89" x2="160" y2="89" stroke="#047857" stroke-width="2" opacity="0.5"/>
    <!-- cruz de rotulo -->
    <g transform="translate(410,60)"><rect x="-16" y="-6" width="32" height="12" rx="3" fill="#047857"/><rect x="-6" y="-16" width="12" height="32" rx="3" fill="#047857"/></g>
  <rect x="250" y="176" width="200" height="18" rx="6" fill="#047857"/>
      <rect x="256" y="194" width="10" height="20" fill="#064e3b"/><rect x="436" y="194" width="10" height="20" fill="#064e3b"/>
      <g transform="translate(340,86)"><line x1="0" y1="0" x2="0" y2="30" stroke="#064e3b" stroke-width="5"/><circle cx="-22" cy="34" r="16" fill="#ecfeff" stroke="#047857" stroke-width="3"/><circle cx="14" cy="40" r="16" fill="#ecfeff" stroke="#047857" stroke-width="3"/></g>
      <rect x="150" y="150" width="46" height="64" rx="6" fill="#ffffff" stroke="#047857" stroke-width="3"/><line x1="150" y1="176" x2="196" y2="176" stroke="#047857" stroke-width="2"/>
</svg>
